Coordinates
version=1
nRows=14
nColumns=33
inDegrees=yes

Units are S.I. units (second, meters, Newtons, ...)
Angles are in degrees.

endheader
time	ground_thorax_rot_x	ground_thorax_rot_y	ground_thorax_rot_z	ground_thorax_tx	ground_thorax_ty	ground_thorax_tz	clav_prot_r	clav_elev_r	scapula_abduction_r	scapula_elevation_r	scapula_upward_rot_r	scapula_winging_r	shoulder_elv_r	plane_of_elev_r	axial_rot_r	elbow_flexion_r	pro_sup_r	wrist_flex_r	wrist_dev_r	clav_prot_l	clav_elev_l	scapula_abduction_l	scapula_elevation_l	scapula_upward_rot_l	scapula_winging_l	shoulder_elv_l	plane_of_elev_l	axial_rot_l	elbow_flexion_l	pro_sup_l	wrist_flex_l	wrist_dev_l	
3.2700	38.719637	13.382142	13.429270	-120.391217	784.208550	3.814112	12.935131	40.559910	44.947016	40.272832	-13.902509	-1892.717410	-4800.607505	150.135787	-123.257097	2531.182425	26.066879	18.423947	9.708970	5.102731	-45.000000	-40.173773	45.000000	-32.403831	1529.072158	-3338.594954	137.375483	159.703529	1449.689964	22.933977	7.175982	-19.461458	
3.2800	38.858741	13.520716	13.585959	-122.486749	785.414541	3.722935	13.112047	40.794032	44.903367	40.630398	-14.495638	-1892.604588	-4800.460691	150.012138	-123.705233	2531.278281	25.882135	18.456880	9.623251	5.103916	-45.000000	-39.846566	45.000000	-32.945197	1529.129319	-3338.411132	137.357323	159.783876	1449.779732	22.756647	7.106988	-19.498288	
3.2900	38.993177	13.643841	13.702277	-124.621682	786.655141	3.634619	13.247631	41.055050	44.831711	40.984299	-15.028527	-1892.493681	-4800.315695	149.885079	-124.143808	2531.369021	25.700391	18.488615	9.533768	5.122531	-45.000000	-39.583400	45.000000	-33.381954	1529.208681	-3338.241749	137.356622	159.845080	1449.866931	22.571155	7.045589	-19.535030	
3.3000	39.132989	13.870461	13.957415	-126.790183	787.927260	3.549509	13.494271	41.330441	44.685126	41.414113	-15.817868	-1892.267279	-4800.140547	149.715944	-124.739404	2531.448850	25.496421	18.523982	9.451511	5.162171	-45.000000	-39.205518	45.000000	-34.094495	1529.248802	-3338.031621	137.340140	159.919282	1449.946734	22.327120	6.985729	-19.565974	
3.3100	39.267611	14.120748	14.223822	-128.987249	789.227630	3.468515	13.719422	41.609747	44.473429	41.861935	-16.645081	-1891.991231	-4799.951794	149.523702	-125.405910	2531.521210	25.302959	18.560167	9.368650	5.207195	-45.000000	-38.840938	45.000000	-34.822422	1529.293550	-3337.817335	137.322413	159.997119	1450.018731	22.031583	6.943161	-19.595845	
3.3200	39.393284	14.435016	14.563056	-131.208968	790.551938	3.392734	13.961290	41.825919	44.173442	42.344542	-17.589232	-1891.626483	-4799.732026	149.301148	-126.187765	2531.583251	25.122639	18.601565	9.291583	5.252161	-45.000000	-38.440069	45.000000	-35.674518	1529.343976	-3337.582604	137.286818	160.065193	1450.081835	21.663638	6.905418	-19.622048	
3.3300	39.507642	14.716356	14.844136	-133.452147	791.895574	3.323336	14.128317	42.020783	43.852515	42.800694	-18.452867	-1891.273336	-4799.509181	149.073760	-126.975020	2531.641132	24.979884	18.643678	9.211129	5.299410	-45.000000	-38.112559	45.000000	-36.396731	1529.424893	-3337.363247	137.256808	160.117832	1450.136781	21.246407	6.888344	-19.648632	
3.3400	39.615038	15.005232	15.143859	-135.713789	793.253122	3.261430	14.298522	42.183352	43.516449	43.253998	-19.341034	-1890.903348	-4799.272391	148.842675	-127.789777	2531.696118	24.862263	18.689987	9.132463	5.343148	-45.000000	-37.779721	45.000000	-37.135885	1529.513350	-3337.141299	137.225170	160.162357	1450.180782	20.771125	6.878232	-19.671022	
3.3500	39.711497	15.235948	15.368277	-137.990717	794.619350	3.208277	14.389708	42.335055	43.203638	43.662345	-20.096362	-1890.585364	-4799.038660	148.630822	-128.546237	2531.751170	24.784066	18.736355	9.045845	5.398399	-45.000000	-37.528793	45.000000	-37.707183	1529.638044	-3336.943886	137.202331	160.185670	1450.216564	20.254725	6.887032	-19.692899	
3.3600	39.796998	15.437503	15.565591	-140.279384	795.988864	3.165385	14.452817	42.451205	42.907736	44.037985	-20.771397	-1890.299539	-4798.800490	148.443943	-129.251257	2531.806235	24.735184	18.784361	8.951597	5.462925	-45.000000	-37.318068	45.000000	-38.205329	1529.795043	-3336.757784	137.176897	160.178349	1450.248441	19.691584	6.903073	-19.712059	
3.3700	39.876260	15.560233	15.668277	-142.575876	797.356800	3.134612	14.464432	42.568164	42.665695	44.354079	-21.283045	-1890.093434	-4798.577949	148.288810	-129.855308	2531.859811	24.709861	18.831136	8.853033	5.528106	-45.000000	-37.187687	45.000000	-38.518737	1529.978012	-3336.598393	137.164472	160.161764	1450.279249	19.105488	6.934613	-19.731895	
3.3800	39.943039	15.651786	15.751550	-144.876125	798.718459	3.117941	14.485968	42.653146	42.460492	44.615760	-21.733282	-1889.934193	-4798.351776	148.156233	-130.391149	2531.909739	24.685135	18.878360	8.754892	5.589309	-45.000000	-37.073475	45.000000	-38.792119	1530.174666	-3336.434983	137.149920	160.136070	1450.310436	18.495201	6.967487	-19.749695	
3.3900	39.999691	15.686102	15.776053	-147.175924	800.069534	3.117201	14.474976	42.718201	42.294601	44.815615	-22.078723	-1889.835177	-4798.132717	148.039915	-130.846873	2531.954233	24.655133	18.925171	8.666223	5.632029	-45.000000	-37.003878	45.000000	-38.948589	1530.379271	-3336.281174	137.148575	160.121732	1450.338950	17.878736	7.004142	-19.767533	
3.4000	40.042317	15.666982	15.749620	-149.471322	801.405853	3.133742	14.436803	42.750866	42.173693	44.943577	-22.318389	-1889.806207	-4797.919449	147.943406	-131.203748	2531.994709	24.613885	18.970807	8.584931	5.655702	-45.000000	-36.977109	45.000000	-39.003862	1530.595601	-3336.128288	137.156754	160.102787	1450.368951	17.271044	7.036134	-19.785472	
